<svg width="310" height="264" viewBox="0 0 310 264" fill="none" xmlns="http://www.w3.org/2000/svg">
<g opacity="0.25">
<g filter="url(#filter0_dd_137_4419)">
<path d="M111.538 52.4882C157.727 52.4883 197.297 79.1211 213.825 116.942H196.495C181.016 87.5475 148.789 67.3321 111.536 67.3319C59.2095 67.3325 16.79 107.215 16.79 156.407C16.7912 205.599 59.2102 245.478 111.536 245.478C117.25 245.478 122.847 245.002 128.282 244.091L126.954 247.846H164.097C148.465 255.803 130.563 260.322 111.538 260.322C50.4898 260.322 1.00011 213.797 1 156.405C1 99.0134 50.4897 52.4882 111.538 52.4882ZM221.904 150.603C222.017 152.524 222.075 154.458 222.075 156.405C222.075 176.198 216.188 194.699 205.972 210.444H186.854C199.04 195.457 206.285 176.728 206.285 156.407C206.285 154.458 206.21 152.522 206.079 150.603H221.904Z" fill="#393E75"/>
<path d="M260.211 56.6442C276.666 56.6444 290.005 70.3359 290.005 87.2252C290.005 103.898 277.006 117.452 260.843 117.797C260.831 117.798 260.819 117.8 260.808 117.8V117.806H183.935V117.848C175.278 118.448 168.445 125.511 168.444 134.136C168.445 142.761 175.278 149.823 183.935 150.422V150.466H262C278.455 150.467 291.794 164.025 291.794 180.751C291.794 197.263 278.793 210.686 262.628 211.026C262.617 211.026 262.605 211.029 262.594 211.029V211.035H195.056L135.74 211.036V211.12C126.928 211.752 119.973 219.201 119.973 228.297C119.973 237.118 126.515 244.388 134.947 245.396C135.008 245.392 135.069 245.387 135.13 245.384V245.379H214.327V245.476H298.885V245.482C303.224 245.638 306.69 248.899 306.69 252.899C306.69 256.899 303.224 260.159 298.885 260.315V260.322H135.13V260.315C135.113 260.314 135.096 260.312 135.079 260.311C118.563 259.943 105.281 245.867 105.281 228.552C105.282 211.276 118.505 197.22 134.972 196.794C135.001 196.792 135.03 196.791 135.059 196.79V196.784H195.056V196.835C195.276 196.857 195.493 196.887 195.707 196.922H261.997V196.88C270.658 196.289 277.495 189.295 277.495 180.751C277.495 172.207 270.658 165.211 261.997 164.621V164.58H260.811V164.717H183.345V164.712C183.328 164.711 183.311 164.708 183.294 164.708C167.138 164.354 154.148 150.804 154.147 134.136C154.148 117.453 167.164 103.891 183.342 103.563V103.555H260.21V103.513C268.87 102.917 275.707 95.8527 275.707 87.2252C275.707 78.5978 268.87 71.5327 260.21 70.9362V70.8951H207.771V70.8444C204.079 70.4219 201.217 67.416 201.217 63.7701C201.217 60.1243 204.079 57.1174 207.771 56.6949V56.6442H260.211Z" fill="#393E75"/>
<ellipse cx="225.139" cy="25.8665" rx="24.508" ry="24.8665" fill="#393E75"/>
<path d="M136.268 4.44324C139.96 4.88285 142.823 8.0133 142.823 11.8114C142.823 15.6097 139.96 18.7399 136.268 19.1796V19.2343H70.4609C70.4483 19.2343 70.4355 19.2352 70.4229 19.2352C70.4101 19.2352 70.3975 19.2343 70.3848 19.2343H69.5273V19.1786C65.8362 18.7375 62.974 15.6093 62.9736 11.8124C62.9736 8.01511 65.8359 4.88519 69.5273 4.44421V4.38953H136.268V4.44324Z" fill="#393E75"/>
<path d="M183.639 2.01361C187.752 2.01361 191.088 5.33707 191.088 9.43646V38.3251C191.089 38.4239 191.091 38.5229 191.091 38.622C191.091 38.6914 191.089 38.7608 191.088 38.83V39.1279H191.085C190.815 50.8646 181.183 60.2958 169.341 60.2958C157.398 60.2958 147.706 50.7046 147.594 38.83H147.591V9.13959H147.599C147.755 5.17793 151.025 2.01382 155.039 2.01361C159.053 2.01361 162.324 5.17779 162.48 9.13959H162.488V38.3251H162.496C162.492 38.4235 162.488 38.5226 162.488 38.622C162.488 42.3935 165.556 45.4511 169.341 45.4511C173.086 45.4511 176.128 42.4567 176.19 38.7392V38.5107C176.189 38.4487 176.188 38.3867 176.186 38.3251H176.19V9.43646C176.19 5.3372 179.525 2.01383 183.639 2.01361Z" fill="#393E75"/>
<path d="M266.474 2.01416C270.587 2.01416 273.923 5.3376 273.923 9.43701C273.923 9.5007 273.92 9.56414 273.918 9.62744V37.7485C273.92 37.8121 273.923 37.8759 273.923 37.9399C273.923 38.0036 273.92 38.0671 273.918 38.1304V39.1274H273.826C273.256 42.6622 270.182 45.3628 266.474 45.3628C262.766 45.3626 259.693 42.6621 259.122 39.1274H259.021V9.43701H259.025C259.025 5.33773 262.36 2.01437 266.474 2.01416Z" fill="#393E75"/>
<path d="M133.885 28.149C137.86 28.305 141.035 31.5652 141.035 35.5651C141.035 39.5648 137.86 42.8241 133.885 42.9801V42.9879H34.9668V42.9801C34.8671 42.984 34.7666 42.9879 34.666 42.9879C30.5525 42.9877 27.2179 39.6642 27.2178 35.5651C27.2178 31.4658 30.5524 28.1424 34.666 28.1422C34.7666 28.1422 34.8671 28.1451 34.9668 28.149V28.1422H133.885V28.149Z" fill="#393E75"/>
</g>
<g style="mix-blend-mode:hard-light" opacity="0.85" filter="url(#filter1_dd_137_4419)">
<path d="M111.538 52.4882C157.727 52.4883 197.297 79.1211 213.825 116.942H196.495C181.016 87.5475 148.789 67.3321 111.536 67.3319C59.2095 67.3325 16.79 107.215 16.79 156.407C16.7912 205.599 59.2102 245.478 111.536 245.478C117.25 245.478 122.847 245.002 128.282 244.091L126.954 247.846H164.097C148.465 255.803 130.563 260.322 111.538 260.322C50.4898 260.322 1.00011 213.797 1 156.405C1 99.0134 50.4897 52.4882 111.538 52.4882ZM221.904 150.603C222.017 152.524 222.075 154.458 222.075 156.405C222.075 176.198 216.188 194.699 205.972 210.444H186.854C199.04 195.457 206.285 176.728 206.285 156.407C206.285 154.458 206.21 152.522 206.079 150.603H221.904Z" fill="url(#paint0_linear_137_4419)"/>
<path d="M260.211 56.6442C276.666 56.6444 290.005 70.3359 290.005 87.2252C290.005 103.898 277.006 117.452 260.843 117.797C260.831 117.798 260.819 117.8 260.808 117.8V117.806H183.935V117.848C175.278 118.448 168.445 125.511 168.444 134.136C168.445 142.761 175.278 149.823 183.935 150.422V150.466H262C278.455 150.467 291.794 164.025 291.794 180.751C291.794 197.263 278.793 210.686 262.628 211.026C262.617 211.026 262.605 211.029 262.594 211.029V211.035H195.056L135.74 211.036V211.12C126.928 211.752 119.973 219.201 119.973 228.297C119.973 237.118 126.515 244.388 134.947 245.396C135.008 245.392 135.069 245.387 135.13 245.384V245.379H214.327V245.476H298.885V245.482C303.224 245.638 306.69 248.899 306.69 252.899C306.69 256.899 303.224 260.159 298.885 260.315V260.322H135.13V260.315C135.113 260.314 135.096 260.312 135.079 260.311C118.563 259.943 105.281 245.867 105.281 228.552C105.282 211.276 118.505 197.22 134.972 196.794C135.001 196.792 135.03 196.791 135.059 196.79V196.784H195.056V196.835C195.276 196.857 195.493 196.887 195.707 196.922H261.997V196.88C270.658 196.289 277.495 189.295 277.495 180.751C277.495 172.207 270.658 165.211 261.997 164.621V164.58H260.811V164.717H183.345V164.712C183.328 164.711 183.311 164.708 183.294 164.708C167.138 164.354 154.148 150.804 154.147 134.136C154.148 117.453 167.164 103.891 183.342 103.563V103.555H260.21V103.513C268.87 102.917 275.707 95.8527 275.707 87.2252C275.707 78.5978 268.87 71.5327 260.21 70.9362V70.8951H207.771V70.8444C204.079 70.4219 201.217 67.416 201.217 63.7701C201.217 60.1243 204.079 57.1174 207.771 56.6949V56.6442H260.211Z" fill="url(#paint1_linear_137_4419)"/>
<ellipse cx="225.139" cy="25.8665" rx="24.508" ry="24.8665" fill="url(#paint2_linear_137_4419)"/>
<path d="M136.268 4.44324C139.96 4.88285 142.823 8.0133 142.823 11.8114C142.823 15.6097 139.96 18.7399 136.268 19.1796V19.2343H70.4609C70.4483 19.2343 70.4355 19.2352 70.4229 19.2352C70.4101 19.2352 70.3975 19.2343 70.3848 19.2343H69.5273V19.1786C65.8362 18.7375 62.974 15.6093 62.9736 11.8124C62.9736 8.01511 65.8359 4.88519 69.5273 4.44421V4.38953H136.268V4.44324Z" fill="url(#paint3_linear_137_4419)"/>
<path d="M183.639 2.01361C187.752 2.01361 191.088 5.33707 191.088 9.43646V38.3251C191.089 38.4239 191.091 38.5229 191.091 38.622C191.091 38.6914 191.089 38.7608 191.088 38.83V39.1279H191.085C190.815 50.8646 181.183 60.2958 169.341 60.2958C157.398 60.2958 147.706 50.7046 147.594 38.83H147.591V9.13959H147.599C147.755 5.17793 151.025 2.01382 155.039 2.01361C159.053 2.01361 162.324 5.17779 162.48 9.13959H162.488V38.3251H162.496C162.492 38.4235 162.488 38.5226 162.488 38.622C162.488 42.3935 165.556 45.4511 169.341 45.4511C173.086 45.4511 176.128 42.4567 176.19 38.7392V38.5107C176.189 38.4487 176.188 38.3867 176.186 38.3251H176.19V9.43646C176.19 5.3372 179.525 2.01383 183.639 2.01361Z" fill="url(#paint4_linear_137_4419)"/>
<path d="M266.474 2.01416C270.587 2.01416 273.923 5.3376 273.923 9.43701C273.923 9.5007 273.92 9.56414 273.918 9.62744V37.7485C273.92 37.8121 273.923 37.8759 273.923 37.9399C273.923 38.0036 273.92 38.0671 273.918 38.1304V39.1274H273.826C273.256 42.6622 270.182 45.3628 266.474 45.3628C262.766 45.3626 259.693 42.6621 259.122 39.1274H259.021V9.43701H259.025C259.025 5.33773 262.36 2.01437 266.474 2.01416Z" fill="url(#paint5_linear_137_4419)"/>
<path d="M133.885 28.149C137.86 28.305 141.035 31.5652 141.035 35.5651C141.035 39.5648 137.86 42.8241 133.885 42.9801V42.9879H34.9668V42.9801C34.8671 42.984 34.7666 42.9879 34.666 42.9879C30.5525 42.9877 27.2179 39.6642 27.2178 35.5651C27.2178 31.4658 30.5524 28.1424 34.666 28.1422C34.7666 28.1422 34.8671 28.1451 34.9668 28.149V28.1422H133.885V28.149Z" fill="url(#paint6_linear_137_4419)"/>
</g>
</g>
<defs>
<filter id="filter0_dd_137_4419" x="0" y="0" width="309.69" height="263.322" filterUnits="userSpaceOnUse" color-interpolation-filters="sRGB">
<feFlood flood-opacity="0" result="BackgroundImageFix"/>
<feColorMatrix in="SourceAlpha" type="matrix" values="0 0 0 0 0 0 0 0 0 0 0 0 0 0 0 0 0 0 127 0" result="hardAlpha"/>
<feOffset dx="1.5" dy="1.5"/>
<feGaussianBlur stdDeviation="0.5"/>
<feComposite in2="hardAlpha" operator="out"/>
<feColorMatrix type="matrix" values="0 0 0 0 0 0 0 0 0 0 0 0 0 0 0 0 0 0 0.55 0"/>
<feBlend mode="color-burn" in2="BackgroundImageFix" result="effect1_dropShadow_137_4419"/>
<feColorMatrix in="SourceAlpha" type="matrix" values="0 0 0 0 0 0 0 0 0 0 0 0 0 0 0 0 0 0 127 0" result="hardAlpha"/>
<feOffset dx="1" dy="1"/>
<feGaussianBlur stdDeviation="1"/>
<feComposite in2="hardAlpha" operator="out"/>
<feColorMatrix type="matrix" values="0 0 0 0 0.909804 0 0 0 0 1 0 0 0 0 0.819608 0 0 0 1 0"/>
<feBlend mode="screen" in2="effect1_dropShadow_137_4419" result="effect2_dropShadow_137_4419"/>
<feBlend mode="normal" in="SourceGraphic" in2="effect2_dropShadow_137_4419" result="shape"/>
</filter>
<filter id="filter1_dd_137_4419" x="0.15" y="0" width="307.39" height="261.172" filterUnits="userSpaceOnUse" color-interpolation-filters="sRGB">
<feFlood flood-opacity="0" result="BackgroundImageFix"/>
<feColorMatrix in="SourceAlpha" type="matrix" values="0 0 0 0 0 0 0 0 0 0 0 0 0 0 0 0 0 0 127 0" result="hardAlpha"/>
<feOffset dx="0.85" dy="0.85"/>
<feComposite in2="hardAlpha" operator="out"/>
<feColorMatrix type="matrix" values="0 0 0 0 1 0 0 0 0 1 0 0 0 0 1 0 0 0 1 0"/>
<feBlend mode="screen" in2="BackgroundImageFix" result="effect1_dropShadow_137_4419"/>
<feColorMatrix in="SourceAlpha" type="matrix" values="0 0 0 0 0 0 0 0 0 0 0 0 0 0 0 0 0 0 127 0" result="hardAlpha"/>
<feOffset dx="-0.85" dy="-1"/>
<feComposite in2="hardAlpha" operator="out"/>
<feColorMatrix type="matrix" values="0 0 0 0 1 0 0 0 0 1 0 0 0 0 1 0 0 0 1 0"/>
<feBlend mode="screen" in2="effect1_dropShadow_137_4419" result="effect2_dropShadow_137_4419"/>
<feBlend mode="normal" in="SourceGraphic" in2="effect2_dropShadow_137_4419" result="shape"/>
</filter>
<linearGradient id="paint0_linear_137_4419" x1="111.538" y1="52.4882" x2="-39.5199" y2="219.509" gradientUnits="userSpaceOnUse">
<stop stop-color="#FCD2D3"/>
<stop offset="1" stop-color="#98ADDA"/>
</linearGradient>
<linearGradient id="paint1_linear_137_4419" x1="205.986" y1="56.6442" x2="57.2576" y2="209.518" gradientUnits="userSpaceOnUse">
<stop stop-color="#FCD2D3"/>
<stop offset="1" stop-color="#98ADDA"/>
</linearGradient>
<linearGradient id="paint2_linear_137_4419" x1="225.139" y1="0.999998" x2="188.82" y2="38.2075" gradientUnits="userSpaceOnUse">
<stop stop-color="#FCD2D3"/>
<stop offset="1" stop-color="#98ADDA"/>
</linearGradient>
<linearGradient id="paint3_linear_137_4419" x1="102.898" y1="4.38953" x2="99.1393" y2="25.4064" gradientUnits="userSpaceOnUse">
<stop stop-color="#FCD2D3"/>
<stop offset="1" stop-color="#98ADDA"/>
</linearGradient>
<linearGradient id="paint4_linear_137_4419" x1="169.341" y1="2.01361" x2="128.102" y2="34.0073" gradientUnits="userSpaceOnUse">
<stop stop-color="#FCD2D3"/>
<stop offset="1" stop-color="#98ADDA"/>
</linearGradient>
<linearGradient id="paint5_linear_137_4419" x1="266.472" y1="2.01416" x2="246.403" y2="9.18545" gradientUnits="userSpaceOnUse">
<stop stop-color="#FCD2D3"/>
<stop offset="1" stop-color="#98ADDA"/>
</linearGradient>
<linearGradient id="paint6_linear_137_4419" x1="84.1265" y1="28.1422" x2="81.447" y2="49.4952" gradientUnits="userSpaceOnUse">
<stop stop-color="#FCD2D3"/>
<stop offset="1" stop-color="#98ADDA"/>
</linearGradient>
</defs>
</svg>
